<?xml version="1.0" ?><svg data-name="Layer 1" id="Layer_1" viewBox="0 0 272 272" xmlns="http://www.w3.org/2000/svg"><defs><style>.cls-1{fill:#F8BE00;}.cls-2{fill:#a0887e;}</style></defs><title/><path class="cls-1" d="M140,132.81v73.85a18,18,0,0,1-1.88,8,2.36,2.36,0,0,1-4.24,0,18,18,0,0,1-1.88-8V132.81c1.36,3.91,2.93,6.37,4,7.25C137.07,139.18,138.64,136.72,140,132.81Z"/><path class="cls-1" d="M150.26,102.16q-.07-.63-.18-1.23A58.69,58.69,0,0,0,148,91.82c-1.82-5.65-4.35-10-7.28-12.21a15,15,0,1,0-9.36,0c-2.91,2.24-5.42,6.49-7.24,12.07a59.22,59.22,0,0,0-2.18,9.39h0c-.07.37-.12.75-.17,1.14a78.16,78.16,0,0,0-.73,10.84c0,2.36.1,4.66.28,6.89,1.11,13.07,5.3,23.54,10.72,27a6.93,6.93,0,0,0,8,0c5.44-3.52,9.64-14.06,10.73-27.2.18-2.18.27-4.44.27-6.74a80.64,80.64,0,0,0-.73-10.9ZM129,65.28A7,7,0,1,1,138.17,72l-2.17.71L133.83,72A7.08,7.08,0,0,1,129,65.28Zm7,20.84c1.4,1.22,3,4.06,4.39,8.26-2.24.82-3.66,1.41-4.12,1.6h0c-.49-.2-2.08-.86-4.59-1.77C133,90.11,134.62,87.32,136,86.12Zm7,26.94a59.9,59.9,0,0,1-3,19.75c-1.36,3.91-2.93,6.37-4,7.25-1.07-.88-2.64-3.34-4-7.25a59.9,59.9,0,0,1-3-19.75c0-1.67,0-3.27.15-4.81h0c4.11-6.61,6.38-11.16,6.78-12l.21-.09c.25.51,2.49,5.06,6.69,11.85C142.94,109.63,143,111.31,143,113.06Z"/><path class="cls-2" d="M141.42,98.18s0-.06,0-.09c-.3-1.33-.65-2.57-1-3.71-2.24.82-3.66,1.41-4.12,1.6h0c-.49-.2-2.08-.86-4.59-1.77-.4,1.23-.78,2.57-1.1,4l0,0a63.38,63.38,0,0,0-1.4,10c4.11-6.61,6.38-11.16,6.78-12l.21-.09c.25.51,2.49,5.06,6.69,11.85A62,62,0,0,0,141.42,98.18Z"/><path class="cls-1" d="M200.06,83.59A179,179,0,0,0,148,91.82c-3.08,1-5.63,1.84-7.57,2.56-2.24.82-3.66,1.41-4.12,1.6h0l-.15.07.15.07h0l1.14.46.42.17,1.16.45.16.06.51.2,1.74.63c2.26.81,5.19,1.8,8.68,2.84a178.66,178.66,0,0,0,50,7.58c35.31,0,63.94-5.58,63.94-12.46S235.37,83.59,200.06,83.59Zm0,16.92A165.32,165.32,0,0,1,163,96a165.32,165.32,0,0,1,37.11-4.46c22.41,0,38.73,2.19,48.15,4.46C238.79,98.32,222.47,100.51,200.06,100.51Z"/><path class="cls-1" d="M136.27,96h0c-.49-.2-2.08-.86-4.59-1.77-2-.71-4.54-1.59-7.59-2.53a180.51,180.51,0,0,0-51.87-8.09C36.75,83.59,8,89.17,8,96s28.75,12.46,64.21,12.46a180.11,180.11,0,0,0,49.69-7.43h0c3.1-.91,5.78-1.78,8-2.54l.07,0,.62-.22c2.71-1,4.55-1.69,5.38-2l.21-.09,0,0,.07,0h0l.15-.07Zm-64.06,4.53c-22.51,0-38.89-2.19-48.36-4.46,9.47-2.27,25.85-4.46,48.36-4.46A167.14,167.14,0,0,1,109.51,96,166.34,166.34,0,0,1,72.21,100.51Z"/><path class="cls-1" d="M193.77,130.89a191.2,191.2,0,0,0-43.5-28.73h0c-3.51-1.69-6.51-3-8.84-4l-1.76-.72-.51-.2L139,97.2l-1.16-.45-.42-.17-1.22-.43-.06,0s0,0,0,0c.25.51,2.49,5.06,6.69,11.85,2.13,3.44,4.77,7.44,7.9,11.78a186.36,186.36,0,0,0,26.6,29.74c27.3,24.35,53.11,39.92,57.65,34.77S221.07,155.24,193.77,130.89Zm-11.12,12.68a178.59,178.59,0,0,1-25.78-29,178,178,0,0,1,31.57,22.24c17.29,15.42,28.45,28.29,34.3,36.54C213.89,168.54,199.88,158.94,182.65,143.57Z"/><path class="cls-1" d="M130.57,98.24l-.64.27-.07,0c-2.22.94-5,2.17-8.13,3.69a191.05,191.05,0,0,0-43.38,28.67C51,155.24,32.61,179.16,37.14,184.31s30.35-10.42,57.65-34.77A186.26,186.26,0,0,0,121.28,120c3.12-4.3,5.74-8.28,7.87-11.7h0c4.11-6.61,6.38-11.16,6.78-12l.07-.14S134,96.8,130.57,98.24Zm-41.1,45.33c-17.23,15.37-31.24,25-40.09,29.83,5.85-8.25,17-21.12,34.3-36.54a178.16,178.16,0,0,1,31.54-22.22A178.5,178.5,0,0,1,89.47,143.57Z"/></svg>